<?xml version="1.0" encoding="utf-8"?>
<!-- Generator: Adobe Illustrator 27.0.0, SVG Export Plug-In . SVG Version: 6.00 Build 0)  -->
<svg version="1.1" id="Layer_1" xmlns="http://www.w3.org/2000/svg" xmlns:xlink="http://www.w3.org/1999/xlink" x="0px" y="0px"
	 viewBox="0 0 3555.56 2000" style="enable-background:new 0 0 3555.56 2000;" xml:space="preserve">
<style type="text/css">
	.st0{fill:#FFFFFF;}
	.st1{fill:#FEF1ED;}
	.st2{fill:#FEEBE4;}
	.st3{fill:#300D23;}
	.st4{fill:#9BD8DA;}
	.st5{fill:#FC3D53;}
	.st6{fill:#FF8B72;}
	.st7{fill:#591F44;}
	.st8{fill:#7D2B60;}
	.st9{fill:#C460A1;}
	.st10{fill:#FDDDD2;}
	.st11{fill:#274D84;}
	.st12{fill:#46ADB0;}
</style>
<g>
	<g>
		<rect class="st0" width="3555.56" height="2000"/>
	</g>
	<g>
		<path class="st1" d="M50,100v341.56c56.61,39.02,130.33,65.29,220.78,44.36c174.69-40.44,251.62-203.25,356.33-240.68
			c144.9-51.79,224.28,123.91,362.09,191.24c116.33,56.83,301.88,6.39,427.3-105.01c167.75-148.99,291.25,80.04,532.28,28.12
			c184.48-39.73,249.74-152.09,303.9-309.59H100C72.39,50,50,72.39,50,100z"/>
	</g>
	<g>
		<path class="st2" d="M696.47,1797c-322.31-44-317.69-296-445.69-417.67c-51.64-49.09-128.02-75.04-200.78-88.54V1900
			c0,27.61,22.39,50,50,50h943.9C977.92,1889.88,867.5,1820.35,696.47,1797z"/>
	</g>
	<g>
		<path class="st1" d="M3455.56,1950c27.61,0,50-22.39,50-50v-695.88c-71.59,40.82-149.12,119.92-191.61,272.84
			c-39.63,142.64-184.94,284.94-369.55,320.94c-138.95,27.1-302.03,60.49-387.37,152.1H3455.56z"/>
	</g>
	<g>
		<path class="st2" d="M3505.56,100c0-27.61-22.39-50-50-50h-354.65c28.1,73.03,84.53,163.03,194.61,260.15
			c93.16,82.19,160.29,153.08,210.04,219.2V100z"/>
	</g>
	<g>
		<g>
			<rect x="2527.64" y="352.01" class="st3" width="395.64" height="5"/>
		</g>
		<g>
			<rect x="2427.08" y="446.06" class="st3" width="531.49" height="5"/>
		</g>
		<g>
			<rect x="2527.64" y="540.1" class="st3" width="347.67" height="5"/>
		</g>
		<g>
			<rect x="2809.09" y="274.93" class="st3" width="5" height="79.58"/>
		</g>
		<g>
			<rect x="2585.72" y="274.93" class="st3" width="5" height="79.58"/>
		</g>
		<g>
			<rect x="2920.77" y="352.01" class="st3" width="5" height="96.55"/>
		</g>
		<g>
			<rect x="2697.41" y="354.51" class="st3" width="5" height="94.05"/>
		</g>
		<g>
			<rect x="2697.41" y="542.6" class="st3" width="5" height="94.05"/>
		</g>
		<g>
			<rect x="2809.09" y="448.56" class="st3" width="5" height="94.05"/>
		</g>
		<g>
			<rect x="2585.72" y="448.56" class="st3" width="5" height="94.05"/>
		</g>
	</g>
	<g>
		
			<rect x="3293.15" y="700.25" transform="matrix(0.4136 -0.9104 0.9104 0.4136 1306.4513 3434.0208)" class="st3" width="52.13" height="5"/>
	</g>
	<g>
		
			<rect x="3098.41" y="624.12" transform="matrix(0.5017 -0.8651 0.8651 0.5017 965.3336 3016.5696)" class="st3" width="5" height="92.59"/>
	</g>
	<g>
		
			<rect x="669.97" y="1241.73" transform="matrix(0.151 -0.9885 0.9885 0.151 -685.9578 1744.1722)" class="st3" width="5" height="59.44"/>
	</g>
	<g>
		
			<rect x="569.75" y="1409.57" transform="matrix(0.5926 -0.8055 0.8055 0.5926 -899.0364 1046.577)" class="st3" width="30.73" height="5"/>
	</g>
	<g>
		
			<rect x="2969.64" y="1265.78" transform="matrix(0.9895 -0.1448 0.1448 0.9895 -156.2241 443.8699)" class="st3" width="5" height="59.44"/>
	</g>
	<g>
		<g>
			<path class="st4" d="M3142.33,1259.81l-58.16,29.42c-17.39-19.76-34.43-43.61-50.79-72.14l37.4-31.72l-52.74,3.16
				c-21.92-43.48-42.39-96.17-60.58-159.68c0,0,170.56-61.99,342.41,11.5l-53.2,96.38l94.64-75.84
				c134.24,77.19,109.54,186,50.1,250.48c-47.6,51.65-162.71,102.05-272.09,12.08L3142.33,1259.81z"/>
		</g>
		<g>
			<path class="st3" d="M3503.15,1430.54c-18.56-64.27-80.18-130.7-169.06-182.25c-59.63-34.58-235.51-145.33-237.28-146.45
				l2.66-4.23c1.77,1.11,177.57,111.81,237.12,146.35c89.98,52.19,152.44,119.69,171.36,185.19L3503.15,1430.54z"/>
		</g>
		<g>
			
				<rect x="3153.53" y="1058.99" transform="matrix(0.9371 -0.3491 0.3491 0.9371 -186.7821 1171.1486)" class="st3" width="5" height="89.64"/>
		</g>
		<g>
			
				<rect x="3195.41" y="1256.29" transform="matrix(0.9838 -0.1793 0.1793 0.9838 -172.7971 606.104)" class="st3" width="141.08" height="5"/>
		</g>
	</g>
	<g>
		<path class="st3" d="M489.41,893.28c-15.21,0-27.58-12.37-27.58-27.58c0-15.21,12.37-27.58,27.58-27.58s27.58,12.37,27.58,27.58
			C516.99,880.91,504.62,893.28,489.41,893.28z M489.41,843.12c-12.45,0-22.58,10.13-22.58,22.58c0,12.45,10.13,22.58,22.58,22.58
			c12.45,0,22.58-10.13,22.58-22.58C511.99,853.25,501.86,843.12,489.41,843.12z"/>
	</g>
	<g>
		<path class="st3" d="M2991.92,880.79c-19.66,0-35.66-16-35.66-35.66c0-19.66,16-35.66,35.66-35.66s35.66,16,35.66,35.66
			C3027.57,864.8,3011.58,880.79,2991.92,880.79z M2991.92,814.48c-16.9,0-30.66,13.75-30.66,30.66c0,16.9,13.75,30.66,30.66,30.66
			s30.66-13.75,30.66-30.66C3022.57,828.23,3008.82,814.48,2991.92,814.48z"/>
	</g>
	<g>
		
			<ellipse transform="matrix(0.7071 -0.7071 0.7071 0.7071 -242.4205 2667.0046)" class="st3" cx="3098.15" cy="1626.13" rx="19.99" ry="19.99"/>
	</g>
	<g>
		<path class="st3" d="M383.74,1513.12l-4.31-2.54c6.45-10.94,9.86-23.48,9.86-36.25h5
			C394.29,1487.99,390.64,1501.41,383.74,1513.12z"/>
	</g>
	<g>
		<path class="st3" d="M317.81,1550.8c-42.17,0-76.48-34.31-76.48-76.48s34.31-76.48,76.48-76.48v5
			c-39.41,0-71.48,32.07-71.48,71.48s32.07,71.48,71.48,71.48V1550.8z"/>
	</g>
	<g>
		
			<ellipse transform="matrix(0.9871 -0.1602 0.1602 0.9871 -232.0566 69.9452)" class="st3" cx="317.81" cy="1474.32" rx="37.52" ry="37.52"/>
	</g>
	<g>
		<path class="st3" d="M3261.43,564.86l-4.31-2.54c4.75-8.06,7.26-17.3,7.26-26.71h5C3269.39,545.91,3266.63,556.03,3261.43,564.86z
			"/>
	</g>
	<g>
		<path class="st3" d="M3211.72,593.27c-31.8,0-57.66-25.87-57.66-57.66s25.87-57.66,57.66-57.66v5
			c-29.04,0-52.66,23.62-52.66,52.66s23.62,52.66,52.66,52.66V593.27z"/>
	</g>
	<g>
		
			<ellipse transform="matrix(0.7071 -0.7071 0.7071 0.7071 561.9595 2427.908)" class="st3" cx="3211.72" cy="535.61" rx="27.98" ry="27.98"/>
	</g>
	<g>
		<rect x="820.78" y="1696.45" class="st3" width="2099" height="5"/>
	</g>
	<g>
		<path class="st3" d="M3455.55,1952.5H100c-28.95,0-52.5-23.55-52.5-52.5V100c0-28.95,23.55-52.5,52.5-52.5h3355.55
			c28.95,0,52.5,23.55,52.5,52.5v1800C3508.05,1928.95,3484.5,1952.5,3455.55,1952.5z M100,52.5c-26.19,0-47.5,21.31-47.5,47.5v1800
			c0,26.19,21.31,47.5,47.5,47.5h3355.55c26.19,0,47.5-21.31,47.5-47.5V100c0-26.19-21.31-47.5-47.5-47.5H100z"/>
	</g>
	<g>
		<g>
			<path class="st3" d="M1042.82,57.13c-15.74-3.16-24.4-4.65-24.48-4.66l0.84-4.93c0.09,0.01,8.81,1.51,24.63,4.69L1042.82,57.13z"
				/>
		</g>
		<g>
			<path class="st3" d="M1191.86,92.58c-15.52-4.17-31.11-8.22-46.35-12.04l1.22-4.85c15.26,3.83,30.89,7.89,46.43,12.07
				L1191.86,92.58z M1117.6,73.7c-15.97-3.82-31.67-7.41-46.68-10.68l1.06-4.89c15.04,3.27,30.77,6.87,46.77,10.7L1117.6,73.7z"/>
		</g>
		<g>
			<path class="st3" d="M2028.33,464.78c-13.08-8.86-26.51-17.75-39.93-26.42l2.71-4.2c13.45,8.69,26.91,17.6,40.02,26.48
				L2028.33,464.78z M1964.17,422.92c-13.39-8.41-27.12-16.85-40.8-25.06l2.57-4.29c13.71,8.23,27.47,16.68,40.89,25.12
				L1964.17,422.92z M1898.65,383.22c-13.67-7.98-27.66-15.97-41.59-23.75l2.44-4.37c13.95,7.79,27.97,15.79,41.67,23.79
				L1898.65,383.22z M1831.89,345.61c-13.89-7.54-28.12-15.11-42.29-22.47l2.3-4.44c14.21,7.38,28.46,14.96,42.37,22.52
				L1831.89,345.61z M1764.03,310.03c-14.13-7.15-28.58-14.29-42.93-21.24l2.18-4.5c14.38,6.96,28.85,14.12,43.01,21.28
				L1764.03,310.03z M1695.16,276.41c-14.34-6.75-28.98-13.49-43.5-20.04l2.05-4.56c14.56,6.56,29.22,13.31,43.58,20.07
				L1695.16,276.41z M1625.4,244.7c-14.52-6.37-29.34-12.72-44.03-18.87l1.93-4.61c14.72,6.17,29.55,12.53,44.1,18.9L1625.4,244.7z
				 M1554.81,214.85c-14.67-5.98-29.65-11.95-44.5-17.73l1.81-4.66c14.88,5.79,29.88,11.77,44.57,17.76L1554.81,214.85z
				 M1483.47,186.82c-14.84-5.62-29.95-11.2-44.93-16.61l1.7-4.7c15,5.42,30.15,11.01,45.01,16.64L1483.47,186.82z M1411.46,160.58
				c-14.99-5.25-30.24-10.47-45.33-15.5l1.58-4.74c15.11,5.04,30.39,10.26,45.4,15.52L1411.46,160.58z M1338.82,136.11
				c-15.14-4.89-30.51-9.73-45.7-14.39l1.46-4.78c15.21,4.66,30.61,9.51,45.77,14.41L1338.82,136.11z M1265.6,113.43
				c-15.32-4.54-30.81-9-46.04-13.25l1.34-4.82c15.26,4.26,30.77,8.73,46.11,13.27L1265.6,113.43z"/>
		</g>
		<g>
			<path class="st3" d="M2072.26,495.34c-6.69-4.78-13.56-9.62-20.4-14.4l2.86-4.1c6.86,4.78,13.74,9.64,20.45,14.43L2072.26,495.34
				z"/>
		</g>
	</g>
	<g>
		<g>
			<path class="st3" d="M2057.41,427.28l-13.21,68.57c0,0-6.16,20.78-4.18,21.7c1.98,0.92,303.66,126.39,303.66,126.39
				l-188.45-176.36L2057.41,427.28z"/>
		</g>
		<g>
			<g>
				<polygon class="st5" points="2057.41,427.28 2112.72,396.49 2343.67,643.94 2057.41,427.28 				"/>
			</g>
			<g>
				<polygon class="st5" points="1985.96,467.05 2343.67,643.94 1905.17,512.03 				"/>
			</g>
			<g>
				
					<rect x="2225.69" y="350.98" transform="matrix(0.7311 -0.6823 0.6823 0.7311 244.3125 1660.2502)" class="st3" width="5" height="338.47"/>
			</g>
			<g>
				
					<rect x="2167.06" y="409.75" transform="matrix(0.2881 -0.9576 0.9576 0.2881 978.1058 2498.7529)" class="st3" width="5" height="363.62"/>
			</g>
		</g>
	</g>
	<g>
		<g>
			<path class="st3" d="M1517.73,1614.31l-1.9,58.91c0,0,1.2,18.26-0.6,18.64s-273.53,47.47-273.53,47.47l188.01-110.07
				L1517.73,1614.31z"/>
		</g>
		<g>
			<g>
				<polygon class="st6" points="1517.73,1614.31 1477.93,1578.65 1241.69,1739.32 1517.73,1614.31 				"/>
			</g>
			<g>
				<polygon class="st6" points="1569.13,1660.36 1241.69,1739.32 1627.26,1712.44 				"/>
			</g>
		</g>
	</g>
	<g>
		<g>
			<path class="st4" d="M393.53,1054.15l16.67-59.29c24.88,0.51,52.37,3.89,82.69,10.72l-1.81,46.3l31.49-38.75
				c44.28,12.51,94.05,31.93,149.89,59.84c0,0-65.8,158.37-226.78,231.09l-33.12-98.62l-7.66,114.36
				c-139.52,44.16-199.5-42.56-206.43-125.15c-5.55-66.15,32.9-178.5,165.43-197.19L393.53,1054.15z"/>
		</g>
		<g>
			
				<rect x="32.47" y="1195" transform="matrix(0.9112 -0.4119 0.4119 0.9112 -470.7493 210.9568)" class="st3" width="443.04" height="5"/>
		</g>
		<g>
			
				<rect x="276.29" y="1207.84" transform="matrix(0.1386 -0.9903 0.9903 0.1386 -919.1482 1363.8884)" class="st3" width="96.4" height="5"/>
		</g>
		<g>
			
				<rect x="454.04" y="1106.23" transform="matrix(0.6722 -0.7404 0.7404 0.6722 -702.2623 715.2385)" class="st3" width="5" height="88.81"/>
		</g>
	</g>
	<g>
		<g>
			<path class="st7" d="M1503.89,730.06c-22.79-12.59-45.68-24.72-68.73-36.29c-88.43-44.36-170.81-76.47-251.85-98.15
				c-91.1-24.37-178.41-35.12-266.94-32.87c-143.96,3.67-281.56,33.74-408.99,89.37c-101.9,44.49-197.48,105.31-284.1,180.77
				C143.13,902.73,85.97,971.57,50,1020.74v90.08c14.59-24.58,82.63-133.02,207.6-241.52c129.79-112.68,349.66-248.66,660.04-256.57
				c203.02-5.2,390.27,64.47,574.41,167.95L1503.89,730.06z"/>
		</g>
		<g>
			<path class="st7" d="M3084.24,1498.72c-371.69,0-678.38-166.77-967.95-361.18l-29.75,40.21
				c166.17,111.58,339.71,215.29,529.25,284.55c144.19,52.69,283.59,80.63,426.17,85.43c14.25,0.48,28.55,0.72,42.91,0.72
				c63.74,0,128.38-4.72,192.7-14.1c74.72-10.89,151.29-28.41,227.98-52.1v-52.4C3355.52,1477.81,3215.84,1498.72,3084.24,1498.72z"
				/>
		</g>
	</g>
	<g>
		<g>
			
				<ellipse transform="matrix(0.4654 -0.8851 0.8851 0.4654 130.4756 1591.8242)" class="st3" cx="1382.95" cy="687.9" rx="97.42" ry="74.04"/>
		</g>
		<g>
			<path class="st8" d="M1739.75,875.51c70.23-133.57,66-274.01-9.45-313.68c-75.45-39.67-262.15-81.77-366.22,116.16
				c-105.39,200.43,36.44,327.88,111.89,367.55C1551.42,1085.2,1669.52,1009.08,1739.75,875.51z"/>
		</g>
		<g>
			
				<ellipse transform="matrix(0.4654 -0.8851 0.8851 0.4654 145.7182 1848.605)" class="st9" cx="1603.14" cy="803.68" rx="273.25" ry="154.35"/>
		</g>
		<g>
			<path class="st3" d="M1689.39,956.23l-3.86-3.18c19.49-23.66,36.98-50.14,52.01-78.71c69.48-132.14,65.71-271.34-8.4-310.31
				l2.33-4.43c37.32,19.62,58.88,63.58,60.69,123.77c1.8,59.67-16.03,128.32-50.19,193.29
				C1726.78,905.55,1709.09,932.31,1689.39,956.23z"/>
		</g>
		<g>
			<path class="st3" d="M1520.24,1058.5c-16.48,0-31.81-3.6-45.43-10.76c-37.32-19.62-58.88-63.58-60.69-123.77
				c-1.8-59.67,16.03-128.32,50.19-193.29c24.92-47.39,56.78-89.27,92.14-121.13l3.35,3.71c-34.93,31.46-66.42,72.87-91.06,119.74
				c-33.77,64.23-51.39,131.99-49.62,190.82c1.76,58.31,22.36,100.74,58.02,119.49c23.19,12.19,51.73,13.46,82.54,3.67
				c30.17-9.59,61.94-29.5,91.88-57.57l3.42,3.65c-30.49,28.58-62.92,48.88-93.79,58.69
				C1547.01,1056.25,1533.27,1058.5,1520.24,1058.5z"/>
		</g>
		<g>
			
				<ellipse transform="matrix(0.4654 -0.8851 0.8851 0.4654 142.1734 1788.8726)" class="st3" cx="1551.92" cy="776.74" rx="62.46" ry="27.3"/>
		</g>
		<g>
			
				<ellipse transform="matrix(0.4654 -0.8851 0.8851 0.4654 150.5069 1929.2623)" class="st3" cx="1672.3" cy="840.04" rx="62.46" ry="27.3"/>
		</g>
	</g>
	<g>
		<g>
			<g>
				<path class="st9" d="M2058.7,1117.7c-2.79,0-5.62-0.78-8.14-2.41l-245.28-158.88c-6.95-4.5-8.94-13.79-4.44-20.74
					c4.5-6.96,13.79-8.94,20.74-4.44l245.28,158.88c6.95,4.5,8.94,13.79,4.44,20.74C2068.43,1115.29,2063.61,1117.7,2058.7,1117.7z"
					/>
			</g>
		</g>
		<g>
			<g>
				<path class="st9" d="M2182.7,1111.98c-2.79,0-5.62-0.78-8.14-2.41l-245.28-158.88c-6.95-4.5-8.94-13.79-4.44-20.74
					c4.5-6.96,13.79-8.94,20.74-4.44l245.28,158.88c6.95,4.5,8.94,13.79,4.44,20.74C2192.43,1109.56,2187.61,1111.98,2182.7,1111.98
					z"/>
			</g>
		</g>
		<g>
			<g>
				<path class="st8" d="M1962.77,1040.55c-82.04,126.66-90.55,266.91-19,313.25c71.55,46.34,253.66,105.18,375.24-82.51
					c123.11-190.06-6.59-329.83-78.14-376.17C2169.32,848.78,2044.81,913.89,1962.77,1040.55z"/>
			</g>
		</g>
		<g>
			<g>
				<path class="st3" d="M2101.75,1403.05c-55.2,0-101.92-17.54-127.37-29.53c-11.57-5.45-22.33-11.37-31.97-17.62l2.72-4.2
					c9.46,6.13,20.02,11.94,31.38,17.29c49.66,23.37,220.98,85.29,340.4-99.06c83.26-128.55,48.53-230.15,4.72-292.74l4.1-2.87
					c28.22,40.33,43.82,83.59,46.35,128.57c3.13,55.58-14.02,112.7-50.97,169.76c-47.66,73.57-108.8,116.5-181.72,127.58
					C2126.52,1402.19,2113.92,1403.05,2101.75,1403.05z"/>
			</g>
			<g>
				<path class="st3" d="M1964.87,1041.91l-4.2-2.72c39.91-61.61,91.02-110.78,143.92-138.45c53.36-27.9,102.24-30.65,137.63-7.72
					l-2.72,4.2C2169.24,851.7,2046.03,916.61,1964.87,1041.91z"/>
			</g>
		</g>
		<g>
			<g>
				
					<ellipse transform="matrix(0.5436 -0.8393 0.8393 0.5436 -6.2272 2493.9578)" class="st3" cx="2290.3" cy="1252.71" rx="97.42" ry="74.04"/>
			</g>
		</g>
	</g>
	<g>
		<g>
			<path class="st10" d="M2760.52,1639.32l16.93,12.61l11.26,15.58l-18.18,11.13c0,0-21.52,0.37-21.89-2.6
				c-0.37-2.97,15.25-8.53,15.25-8.53l-2.97-6.6L2760.52,1639.32z"/>
		</g>
		<g>
			<path class="st10" d="M2583.24,1639.32l16.93,12.61l11.26,15.58l-18.18,11.13c0,0-21.52,0.37-21.89-2.6
				c-0.37-2.97,15.25-8.53,15.25-8.53l-2.97-6.6L2583.24,1639.32z"/>
		</g>
		<g>
			<path class="st10" d="M2469.36,842.59c0,0-15.58,64.55,5.94,110.54l14.84-12.61c0,0,20.03,47.48,51.93,42.29
				c31.9-5.19,53.42-71.22,50.45-97.93c-2.97-26.71-25.22-70.48-27.45-71.97c-2.23-1.48-20.03-4.45-23-4.45
				C2539.1,808.46,2469.36,842.59,2469.36,842.59z"/>
		</g>
		<g>
			<path class="st10" d="M2606.61,916.04l29.68,23.74l-49.71,35.98l-23-31.9l4.82-27.82c0,0,27.82-15.21,29.31-12.98
				C2599.19,905.28,2606.61,916.04,2606.61,916.04z"/>
		</g>
		<g>
			<path class="st3" d="M2537.2,985.71c-25.99,0-43.09-31.05-47.96-41.14l-14.82,12.6l-1.39-2.97
				c-21.64-46.26-6.75-109.52-6.1-112.19l0.28-1.14l1.06-0.52c32.05-15.69,70.87-34.38,73.81-34.38c2.57,0,21.32,2.83,24.39,4.87
				c3.8,2.53,25.68,47.96,28.55,73.77c3.23,29.03-19.56,95.31-52.53,100.68C2540.72,985.56,2538.94,985.71,2537.2,985.71z
				 M2491.11,936.41l1.33,3.14c0.17,0.41,17.71,41.16,44.77,41.16c1.48,0,2.98-0.12,4.46-0.36c13.08-2.13,26.35-16.5,36.41-39.43
				c8.53-19.43,13.44-42.35,11.95-55.75c-2.84-25.56-23.58-66.48-26.5-70.23c-2.57-1.17-18.09-3.84-21.27-3.95
				c-4.32,1.2-45.03,20.78-70.73,33.34c-1.86,8.56-12.78,63.66,4.68,104.76L2491.11,936.41z"/>
		</g>
		<g>
			<path class="st3" d="M2586.02,979.26l-16.14-22.38l16.57-32.98c7.3-23.48,9.19-23.49,11.02-23.49c0.92,0,1.79,0.47,2.31,1.26
				c1.32,1.98,7.46,10.89,8.67,12.65l31.95,25.56L2586.02,979.26z M2575.71,956.41l11.43,15.86l45.02-32.59l-27.4-21.92l-0.21-0.3
				c-0.23-0.33-4.31-6.25-6.96-10.12c-1.7,3.92-4.35,11.54-6.43,18.24l-0.15,0.38L2575.71,956.41z"/>
		</g>
		<g>
			<path class="st3" d="M2532.42,871.52c0,0,4.08-29.31,21.52-27.82c17.43,1.48,21.14,48.52,6.68,61.73c0,0,9.27,38.43,30.05,38.06
				c20.77-0.37,27.82-30.42,27.82-30.42s20.4,3.34,26.71-23.74c6.31-27.08-11.13-54.27-30.79-45.68c0,0,15.58-27.03,0-62.64
				c-15.58-35.61-50.08-41.92-73.08-25.6c-23,16.32-32.27,18.18-74.19,18.92s-63.06,34.13-57.87,62.69
				c5.19,28.56,52.68,58.98,82.72,8.16C2491.99,845.18,2497.92,874.86,2532.42,871.52z"/>
		</g>
		<g>
			<path class="st3" d="M2519.52,963.75l-0.91-4.92l0.45,2.46l-0.48-2.45c0.22-0.05,22.04-5.16,15.44-55.69l4.96-0.65
				C2546.25,958.16,2520.61,963.55,2519.52,963.75z"/>
		</g>
		<g>
			<path class="st11" d="M2813.6,1174.97l-83.73-11.24l-2.64,3.88c-18.44-3.61-110.1-17.91-141.4,46.68
				c-34.87,71.97-98.18,247.8-98.18,247.8c-2.47,95.21,95.99,198.83,95.99,198.83h23.7c-25.22-67.51-34.87-160.99-21.52-207.73
				c4.94-17.29,30.59-59.14,60.95-105.02c1.14,33.87,4.15,77.46,11.51,119.86c15.33,88.29,102.63,192.9,102.63,192.9h23.74
				c0,0-25.97-114.25-34.87-213.67S2813.6,1174.97,2813.6,1174.97z"/>
		</g>
		<g>
			<path class="st3" d="M2787.8,1663.42h-28.04l-0.75-0.9c-0.88-1.05-87.9-106.14-103.17-194.07c-5.81-33.45-9.59-71.22-11.26-112.4
				c-33.32,50.68-52.26,83.58-56.33,97.82c-13.28,46.48-3.66,138.97,21.45,206.17l1.26,3.38h-28.38l-0.74-0.78
				c-0.25-0.26-25.06-26.51-49.21-64.08c-22.37-34.79-48.76-86.72-47.46-136.54l0.01-0.4l0.14-0.38
				c0.63-1.76,63.75-176.78,98.28-248.04c20.81-42.96,67.31-51.97,102.64-51.97c17.8,0,32.87,2.33,39.86,3.62l2.58-3.8l88.5,11.88
				l-1.27,3.01c-0.72,1.72-72.36,173.44-63.62,271.09c8.79,98.11,34.56,212.2,34.82,213.34L2787.8,1663.42z M2762.11,1658.42h19.44
				c-4.16-18.88-26.23-121.5-34.24-210.95c-4.63-51.76,13.03-123.39,28.66-174.38c14.36-46.83,29.69-85.3,34.08-96.08l-78.98-10.6
				l-2.7,3.96l-1.62-0.32c-5.89-1.15-21.63-3.83-40.53-3.83c-33.91,0-78.46,8.53-98.14,49.15
				c-33.64,69.42-94.61,237.96-97.94,247.17c-1.11,48.43,24.75,99.2,46.68,133.3c21.6,33.59,43.67,57.98,47.91,62.56h19.04
				c-24.5-67.75-33.64-159.35-20.34-205.92c4.38-15.33,24.99-50.9,61.26-105.71l4.32-6.53l0.26,7.82
				c1.48,43.98,5.34,84.19,11.48,119.51C2675.05,1549.91,2753.62,1648.01,2762.11,1658.42z"/>
		</g>
		<g>
			<path class="st10" d="M2768.35,906.39c0,0,42.29,8.16,56.39,25.22c0,0,0,76.74-38.58,148.17
				c-38.58,71.43-49.71-18.34-49.71-18.34s-9.43-31.22-6.57-54.56c2.86-23.34,17.7-36.7,22.89-52.28
				C2757.96,939.04,2768.35,906.39,2768.35,906.39z"/>
		</g>
		<g>
			<path class="st3" d="M2759.55,1109.9c-0.77,0-1.54-0.07-2.3-0.21c-17.03-3.2-22.57-42.26-23.27-47.72
				c-0.89-2.99-9.39-32.52-6.59-55.38c1.84-15.02,8.48-26.08,14.34-35.83c3.49-5.8,6.78-11.29,8.66-16.93
				c5.13-15.38,15.47-47.86,15.57-48.19l0.67-2.12l2.18,0.42c1.76,0.34,43.34,8.53,57.84,26.09l-3.86,3.18
				c-11.58-14.02-44.05-21.98-52.76-23.9c-2.41,7.54-10.54,33-14.9,46.1c-2.06,6.17-5.49,11.88-9.12,17.93
				c-5.88,9.78-11.95,19.9-13.66,33.86c-2.76,22.54,6.39,53.22,6.48,53.53l0.09,0.42c1.42,11.39,7.64,41.44,19.26,43.63
				c4.81,0.91,13.2-2.9,25.77-26.17c21.7-40.17,31.05-82.11,35.08-110.21l4.95,0.71c-4.09,28.5-13.58,71.05-35.63,111.88
				C2777.86,1100.4,2768.42,1109.9,2759.55,1109.9z"/>
		</g>
		<g>
			<path class="st10" d="M2554.68,1083.71l-42.29,5.19c0,0-27.45,57.65-36.35,74.82c-8.9,17.17-126.12,86.17-126.12,86.17
				s-32.89-6.68-58.61,0c-25.72,6.68-46.99,18.05-47.48,20.03c-0.49,1.98,10.39,3.96,10.39,3.96s-7.91,4.95,2.47,6.92
				c10.39,1.98,43.53-7.42,43.53-7.42s-35.12,14.34-29.18,18.3c5.94,3.96,20.28-4.95,34.13-3.96s34.13,3.46,50.7-17.81
				c0,0,123.4-18.79,168.41-57.87c45.01-39.07,58.61-117.22,58.61-117.22L2554.68,1083.71z"/>
		</g>
		<g>
			<path class="st3" d="M2275.07,1295.21c-2.06,0-3.89-0.4-5.44-1.43c-1.27-0.84-1.91-2.14-1.77-3.56c0.19-1.91,1.63-4.32,9.54-8.79
				c-8.27,1.61-16.64,2.72-21.19,1.85c-1.64-0.31-6.63-1.26-7.32-4.93c-0.2-1.07,0.03-2.06,0.46-2.93
				c-4.12-1.04-6.65-2.26-7.53-3.62c-0.49-0.75-0.64-1.63-0.43-2.46c0.21-0.85,0.78-3.12,15.67-9.92
				c6.06-2.77,18.47-7.99,33.61-11.92c23.83-6.19,53.06-1.28,58.78-0.21c5.79-3.43,41.38-24.56,72.94-45.23l2.74,4.18
				c-34.4,22.53-73.57,45.61-73.96,45.84l-0.83,0.49l-0.94-0.19c-0.32-0.07-32.64-6.48-57.49-0.03
				c-20.54,5.33-38.1,13.73-44.03,17.44c1.74,0.58,4.29,1.22,6.75,1.67l6.36,1.16l-5.48,3.42c-0.58,0.37-1.22,0.94-1.54,1.36
				c0.4,0.24,1.3,0.64,3.15,0.99c8.04,1.53,33.32-4.8,42.38-7.37l1.63,4.72c-11.56,4.72-24.5,11.2-27.69,14.35
				c2.53,0.61,7.05-0.59,11.79-1.85c6.11-1.62,13.03-3.47,20.08-2.96l1.75,0.13c13.39,1,31.73,2.36,46.8-16.98l0.61-0.79l0.98-0.15
				c1.23-0.19,123.21-19.14,167.15-57.28c39.84-34.59,54.9-101.39,57.4-113.77l-25.67-10.13l-40.3,4.95
				c-4.05,8.49-27.7,58.04-35.8,73.66l-4.44-2.3c8.78-16.94,36.04-74.17,36.32-74.75l0.59-1.24l44.28-5.44l30.68,12.11l-0.35,2.01
				c-0.56,3.23-14.27,79.48-59.44,118.68c-43.43,37.7-156.15,56.32-168.7,58.3c-16.6,20.63-36.97,19.11-50.49,18.11l-1.73-0.13
				c-6.22-0.45-12.71,1.28-18.44,2.81C2282.28,1294.17,2278.38,1295.21,2275.07,1295.21z"/>
		</g>
		<g>
			<path class="st12" d="M2761.17,1005.32c0,0,24.73-41.25,17.81-102.48c0,0-54.41-8.51-85.07,0s-127.11,81.21-142.45,94.57
				c-15.33,13.35-63.8,110.3-63.8,110.3s23.74,46.99,75.92,73.7l5.69-8.41c0,0-0.49,44.51-11.87,87.55
				c0,0,194.38-56.39,271.54-65.78C2828.94,1194.75,2828.94,1122.54,2761.17,1005.32z"/>
		</g>
		<g>
			<path class="st3" d="M2553.85,1264.16l1.13-4.27c8.22-31.09,10.72-63.29,11.47-78.29l-2.04,3.02l-1.97-1.01
				c-52.3-26.77-76.77-74.32-77.01-74.79l-0.57-1.12l0.56-1.12c1.99-3.98,48.87-97.54,64.4-111.06
				c14.08-12.27,111.91-86.35,143.42-95.09c9.26-2.57,21.49-3.87,36.35-3.87c25.11,0,49.53,3.77,49.77,3.81l1.88,0.29l0.21,1.89
				c6.34,56.11-13.22,95.16-17.41,102.76c34.65,60.21,51.12,108.27,58.83,138.06c8.45,32.64,8.55,50.64,8.55,51.39v2.21l-2.2,0.27
				c-76.08,9.27-269.2,65.14-271.15,65.7L2553.85,1264.16z M2571.86,1164.69l-0.09,8.32c0,0.43-0.59,42.41-10.87,83.91
				c28.49-8.17,193.96-55.09,265.45-64.37c-0.7-12.92-7.22-81.98-67.34-185.99l-0.74-1.27l0.75-1.26c0.24-0.4,23.69-40.44,17.67-99
				c-6.16-0.87-26.4-3.48-47.11-3.48c-14.41,0-26.19,1.24-35.02,3.69c-30.83,8.55-127.52,81.89-141.47,94.04
				c-13.9,12.11-57.1,97.39-62.63,108.38c3.89,7.06,27.14,46.6,72.28,70.49L2571.86,1164.69z"/>
		</g>
		<g>
			<path class="st5" d="M2788.71,1667.51c0,0,12.61,10.39,17.06,28.93h-103.95c0,0,26.46-20.03,62.07-28.93H2788.71z"/>
		</g>
		<g>
			<path class="st5" d="M2611.43,1667.51c0,0,12.61,10.39,17.06,28.93h-103.95c0,0,26.46-20.03,62.07-28.93H2611.43z"/>
		</g>
		<g>
			<path class="st3" d="M2805.78,1698.95h-111.4l5.94-4.49c1.1-0.83,27.28-20.44,62.97-29.37l1.21,4.85
				c-24.41,6.1-44.64,17.64-54.57,24.01h95.84V1698.95z"/>
		</g>
		<g>
			<path class="st3" d="M2628.5,1698.95h-111.4l5.94-4.49c1.1-0.83,27.28-20.44,62.98-29.37l1.21,4.85
				c-24.44,6.11-44.66,17.65-54.58,24.01h95.85V1698.95z"/>
		</g>
		<g>
			<path class="st3" d="M2490.19,905.15c-1.71-4.83-4.67-8.18-6.6-7.5c-1.93,0.69-2.11,5.15-0.4,9.98c1.71,4.83,4.67,8.18,6.6,7.5
				C2491.73,914.45,2491.9,909.98,2490.19,905.15z"/>
		</g>
	</g>
	<g>
		<g>
			<path class="st5" d="M740.19,1661.36l-8.52,7.15l-12.26,5.32c0,0-27.84,5.4-46.95,30.75l54.43,50.27h27.84
				c0,0-3.32-14.54-15.79-21.19c0,0,3.32-19.94-6.65-34.9l25.76-27.84c0,0-5.82-7.48-7.48-7.06
				C748.92,1664.27,740.19,1661.36,740.19,1661.36z"/>
		</g>
		<g>
			<path class="st3" d="M757.87,1757.34h-31.95l-55.15-50.94l3.39-3.67l53.71,49.61h23.43c-1.65-4.35-5.6-12.25-13.54-16.48
				l2.35-4.41c13.32,7.1,16.9,22.2,17.05,22.84L757.87,1757.34z"/>
		</g>
		<g>
			<path class="st3" d="M756.08,1672.45c-2.09-2.69-4.59-5.37-5.64-6.07c-1.1,0.05-3.58-0.24-9.71-2.21l-7.45,6.25l-3.21-3.83
				l9.59-8.05l1.33,0.44c3.52,1.17,7.96,2.4,9.13,2.41c1.17-0.27,3.37-0.44,9.92,7.99L756.08,1672.45z"/>
		</g>
		<g>
			<path class="st10" d="M732.3,1698.75l25.76-27.84c0,0-5.82-7.48-7.48-7.06c-1.66,0.42-10.39-2.49-10.39-2.49l-8.52,7.15
				l-12.26,5.32L732.3,1698.75z"/>
		</g>
		<g>
			<path class="st10" d="M1061.36,1632.27l-18.96,14.13l-12.61,17.45l20.36,12.46c0,0,24.1,0.42,24.51-2.91
				c0.42-3.32-3.32-9.56-3.32-9.56l3.36-21.19L1061.36,1632.27z"/>
		</g>
		<g>
			<path class="st11" d="M1039.76,1185.49c0,0,49.86,289.18-283.64,510.77l-26.35-29.92c0,0,134.79-100.38,114.92-359.31
				c0,0,46.6-94.95,49.93-96.06c3.32-1.11,23.52-26.59,62.72-25.48C996.55,1186.6,1039.76,1185.49,1039.76,1185.49z"/>
		</g>
		<g>
			<path class="st11" d="M1050.84,1185.45c0,0,95.29,87.56,99.72,202.79c4.43,115.23-74.65,265.91-74.65,265.91l-33.51-7.76
				c0,0,36.7-112.58,3.18-200.88c-33.52-88.3-77.84-118.22-77.84-118.22s5.54-34.35,14.4-48.75c8.86-14.4,34.54-93.1,34.54-93.1
				l6.86-15.48L1050.84,1185.45z"/>
		</g>
		<g>
			<path class="st3" d="M991.44,1444.95l-4.48-2.23c36.32-72.9,48.06-138.9,51.51-181.44c3.16-38.95,0.16-65.75-0.87-73.24
				c-9.33,0.21-46.53,0.9-80.34-0.05c-31.02-0.89-49.55,15.23-57.46,22.11c-1.85,1.6-2.92,2.54-3.86,3.02
				c-4.11,4.85-32.11,60.56-49.02,95.02l-4.49-2.2c0.12-0.24,11.8-24.02,23.73-47.64c24.07-47.63,26.07-49.14,27.55-49.66
				c0.44-0.26,1.69-1.35,2.8-2.31c7.63-6.64,27.88-24.25,60.88-23.33c38.69,1.09,81.85,0.01,82.28,0l2.16-0.06l0.37,2.13
				c0.05,0.29,5.03,29.99,1.24,76.62C1039.97,1304.66,1028.11,1371.34,991.44,1444.95z"/>
		</g>
		<g>
			<path class="st3" d="M755.68,1699.55l-29.59-33.59l2.17-1.62c0.54-0.4,54.17-41.23,88.07-135.13l4.7,1.7
				c-30.6,84.76-77.25,127.07-87.67,135.75l23.18,26.31c64.12-42.84,118.49-91.36,161.61-144.25l3.88,3.16
				c-43.85,53.78-99.21,103.05-164.54,146.46L755.68,1699.55z"/>
		</g>
		<g>
			<path class="st10" d="M840.74,817.92c0,0-18.7-51.1-18.7-96.39c0,0,72.29-40.3,137.53-51.11c65.23-10.8,83.51-9.14,93.9-31.99
				c10.39-22.85,22.44-49.86,22.44-49.86s-25.34,6.65-34.07,24.51c0,0-19.11-16.2-20.36-37.39c-1.25-21.19-7.11-36.56-9.58-36.56
				s-11.61,12.88-11.61,33.24c0,0-5.82-31.58-19.94-37.81c0,0-11.22,14.13-9.56,31.58l-9.97-15.79c0,0-7.22,47.78,32.12,78.53
				c0,0-163.42-7.06-258.56,30.75c0,0-20.36,180.74,24.51,259.4c0,0,35.45-22.71,35.45-24.38c0-1.66,19.94-28.95,19.94-28.95
				L840.74,817.92z"/>
		</g>
		<g>
			<path class="st3" d="M959.98,672.89l-0.82-4.93c11.26-1.86,21.1-3.35,29.78-4.67c41.65-6.31,54.22-8.21,62.25-25.89
				c7.56-16.64,16.09-35.66,20.1-44.64c-7.62,2.92-21.45,9.63-27.21,21.42l-4.49-2.19c9.12-18.68,34.6-25.55,35.68-25.84l5.04-1.32
				l-2.12,4.76c-0.12,0.27-12.17,27.28-22.44,49.87c-9.16,20.15-24.65,22.49-66.06,28.77C981.02,669.54,971.2,671.03,959.98,672.89z
				"/>
		</g>
		<g>
			<path class="st3" d="M758.02,922.55l-1.3-2.29c-25.01-43.85-29.81-119.04-29.43-174.39l5,0.04
				c-0.37,53.77,4.15,126.37,27.49,169.57c14.69-9.45,30.28-19.89,32.37-22.02c0.93-2.11,4.72-8.16,20.03-29.11l25.83-46.66
				c-2.69-7.68-18.46-54.6-18.46-96.17h5c0,44.31,18.36,95.03,18.54,95.53l0.39,1.07l-27.17,49.04
				c-7.41,10.14-18.13,25.2-19.48,27.93c-0.15,1.46-1.76,3.1-18.83,14.43c-8.78,5.83-17.67,11.53-17.76,11.59L758.02,922.55z
				 M792.07,893.65c-0.07,0.15-0.15,0.36-0.19,0.61C791.9,894.1,791.96,893.91,792.07,893.65z"/>
		</g>
		<g>
			<path class="st3" d="M733.6,702.55l-4.99-0.26c1.35-25.59,3.27-42.77,3.29-42.94l0.17-1.49l1.39-0.55
				c83.22-33.07,219.77-31.94,252.43-31.14c-33.86-31.26-27.61-75.72-27.54-76.18l1-6.64l9.06,14.34
				c1.61-13.97,9.58-24.16,9.98-24.67l1.2-1.51l1.77,0.78c8.86,3.91,14.59,16.33,17.86,26.25c2.79-13.2,9.02-21.89,12.68-21.89v5
				c0.36,0,0.56-0.11,0.57-0.11c-1.71,0.9-9.68,11.82-9.68,30.85l-4.96,0.45c-1.47-7.94-7.2-28.75-16.73-35.01
				c-2.72,4.12-9.05,15.24-7.83,28.08l0.99,10.43l-11.43-18.1c-0.14,14.38,3.09,46.36,31.64,68.67l6.15,4.8l-7.79-0.34
				c-1.62-0.07-162.37-6.54-256.13,30.02C736.21,666.07,734.71,681.41,733.6,702.55z"/>
		</g>
		<g>
			<path class="st10" d="M1056.14,1060.16c0,0,136.12-61.03,189.3-131.33c0,0-21.21-153.29-48.91-226.42c0,0,33.24-6.09,55.95-25.48
				c22.71-19.39,26.04-39.33,26.04-39.33l-8.86,2.77c0,0,6.65-13.3,4.43-22.71c0,0-32.69,24.93-65.92,34.35l9.42-18.84
				c0,0-38.78,13.3-50.41,29.36c-11.63,16.07,0,43.21,0,43.21s11.08,97.5-3.88,192.79c0,0-23.91,23.63-102.9,47.64l-28.95,39.89
				c0,0,4.71,18.84,3.74,20.5C1034.22,1008.21,1056.14,1060.16,1056.14,1060.16z"/>
		</g>
		<g>
			<path class="st3" d="M1196.98,704.87l-0.9-4.92c0.33-0.06,32.86-6.21,54.78-24.92c15.62-13.33,21.79-27.01,24.04-33.68
				l-10.1,3.15l2.62-5.25c0.06-0.13,6.21-12.61,4.23-21.02l4.87-1.14c1.52,6.44-0.62,14.27-2.47,19.29l7.6-2.38l-0.67,4.01
				c-0.14,0.85-3.74,21.07-26.88,40.82C1231.15,698.43,1198.37,704.62,1196.98,704.87z"/>
		</g>
		<g>
			<path class="st3" d="M1189.96,984.79l-3-4c24.61-18.45,43.62-36.44,56.49-53.47l3.99,3.02
				C1234.28,947.74,1214.94,966.06,1189.96,984.79z"/>
		</g>
		<g>
			<path class="st3" d="M1053.84,1061.13c-0.05-0.13-5.55-13.15-10.85-26.21c-10.17-25.04-10.75-27.88-10.16-29.25
				c0.06-2.11-1.88-11.35-3.8-19.01l-0.28-1.13l30.13-41.51l0.8-0.24c70.78-21.52,97.19-42.91,101.29-46.51
				c14.09-90.74,4.46-184.43,3.77-190.9c-1.42-3.47-11.3-29.12,0.42-45.31c11.96-16.52,50.01-29.71,51.63-30.26l1.62,4.73
				c-0.38,0.13-38.17,13.22-49.2,28.46c-10.68,14.75,0.16,40.5,0.27,40.76l0.14,0.34l0.04,0.37c0.11,0.98,10.95,98.93-3.89,193.46
				l-0.13,0.81l-0.58,0.58c-0.99,0.98-25.09,24.18-103.12,48.01l-27.78,38.26c3.56,14.4,3.83,18.69,3.54,20.3
				c0.9,4.41,13.09,34.16,20.75,52.31L1053.84,1061.13z"/>
		</g>
		<g>
			<path class="st12" d="M844.75,802.98c0,0,17.73,75.6,73.68,116.04l23.66,31.58l35.06-6.65c0,0,46.38-1.12,92.29-3.78
				c0,0-8.08,79.26-0.6,124.97l-60.25,21.61c0,0,33.25,59.41,82.69,96.81l-255.39,133.79c0,0-79.92-138.21-38.78-322.48
				c0,0-26.59-29.98-47.64-70.36C749.47,924.5,769.41,875.86,844.75,802.98z"/>
		</g>
		<g>
			<path class="st3" d="M941.03,953.35l-24.37-32.52c-48.24-35.07-68.49-96.54-73.21-113.08c-7.99,7.81-15.69,15.68-22.93,23.45
				l-3.66-3.41c8.22-8.81,17.02-17.76,26.16-26.6l3.16-3.06l1.01,4.29c0.18,0.75,18.19,75.17,72.71,114.58l0.31,0.22l22.95,30.63
				l33.73-6.39l0.2,0c0.46-0.01,46.87-1.15,92.2-3.78l0.29,4.99c-43.88,2.55-88.75,3.7-92.17,3.78L941.03,953.35z"/>
		</g>
		<g>
			<path class="st3" d="M834.93,1320.66l-1.2-2.08c-0.2-0.35-20.32-35.51-35.07-92.77c-13.55-52.58-25.24-135.12-4.25-230.28
				c-4.72-5.5-28.29-33.72-47.15-69.89l-0.54-1.03l0.44-1.07c0.34-0.84,8.72-20.93,34.73-54.73l3.96,3.05
				c-22.27,28.94-31.55,48-33.61,52.54c20.57,39.09,46.48,68.5,46.74,68.79l0.85,0.96l-0.28,1.25
				c-21.13,94.62-9.54,176.75,3.9,228.99c12.55,48.78,29,81.28,33.45,89.59l173.83-91.06l2.32,4.43L834.93,1320.66z"/>
		</g>
		<g>
			<path class="st3" d="M1050.51,1207.73l-2.32-4.43l38.47-20.15c-47.59-37.38-79.92-94.6-80.25-95.18l-1.44-2.58l63.03-22.6
				l1.69,4.71l-57.42,20.59c6.98,11.74,37.86,61.21,80.52,93.48l3.14,2.38L1050.51,1207.73z"/>
		</g>
		<g>
			<path class="st5" d="M1029.78,1663.85c0,0-14.13,11.63-19.11,32.41h132.96c0,0-32.41-22.44-72.29-32.41H1029.78z"/>
		</g>
		<g>
			<path class="st3" d="M1151.63,1698.76H1007.5l0.74-3.08c5.12-21.34,19.35-33.26,19.95-33.75l0.69-0.57h25.22v5h-23.38
				c-2.57,2.37-12.22,12.03-16.8,27.41h121.1c-8.89-5.38-25.3-14.48-45.01-21.58l1.69-4.7c30.37,10.94,53.11,26.57,53.33,26.72
				L1151.63,1698.76z"/>
		</g>
		<g>
			<path class="st10" d="M1050.97,761c0,0,40.72,56.51,40.3,94.73l-26.59,3.74c0,0-8.73,43.21-28.25,60.25
				c-19.53,17.03-70.63-14.96-80.6-40.3c-9.97-25.34-15.37-32.41-13.3-41.55c2.08-9.14,14.13-49.03,24.1-59.83
				c9.97-10.8,18.28-22.02,31.16-26.18c12.88-4.15,33.65-6.65,35.32-5.82C1034.77,746.87,1050.97,761,1050.97,761z"/>
		</g>
		<g>
			<path class="st3" d="M1034.54,888.89c-26.57-7.09-25.19-42.58-25.12-44.08l4.99,0.24c-0.02,0.33-1.25,32.97,21.41,39.02
				L1034.54,888.89z"/>
		</g>
		<g>
			<path class="st10" d="M942.09,890.21l-23.66,28.81c0,0-19.39,38.22,16.07,64.82c35.45,26.59,62.61,1.84,42.66-39.89l24.38-41.27
				l-7.76-19.11l-44.87-6.65L942.09,890.21z"/>
		</g>
		<g>
			<path class="st3" d="M1021.91,927c-23.85,0-59.66-24.43-68.41-46.67c-2.8-7.12-5.27-12.86-7.26-17.48
				c-5.21-12.11-7.82-18.18-6.15-25.54c1.82-8.01,14.06-49.45,24.7-60.97c1.56-1.69,3.08-3.39,4.58-5.07
				c8.31-9.3,16.15-18.08,27.65-21.79c11.54-3.72,29.17-6.1,34.54-6.1c1.31,0,2.05,0.12,2.66,0.42c1.69,0.85,12.25,9.96,18.39,15.31
				l0.22,0.19l0.17,0.23c1.68,2.34,41.19,57.62,40.77,96.22l-0.02,2.15l-26.99,3.79c-1.88,8.42-10.77,44.27-28.69,59.9
				C1033.97,925.18,1028.53,927,1021.91,927z M1031.57,748.38c-5.1,0-21.92,2.28-33.01,5.85c-10.21,3.29-17.61,11.58-25.46,20.36
				c-1.52,1.7-3.06,3.42-4.64,5.13c-9.28,10.05-21.16,48.42-23.5,58.69c-1.31,5.77,0.94,11,5.87,22.46c2,4.65,4.49,10.43,7.32,17.62
				c8,20.33,41.96,43.5,63.76,43.5c5.37,0,9.71-1.4,12.88-4.17c18.67-16.29,27.36-58.43,27.45-58.86l0.35-1.73l26.17-3.68
				c-1.05-35.7-36.9-86.99-39.65-90.87c-7.17-6.25-15.15-13.02-16.95-14.29C1032.03,748.39,1031.84,748.38,1031.57,748.38z"/>
		</g>
		<g>
			<path class="st3" d="M962.01,997.36C962.01,997.36,962.01,997.36,962.01,997.36c-8.93,0-18.96-3.98-29.01-11.52
				c-36.71-27.53-17-67.55-16.79-67.95l0.12-0.24l23.66-28.81l8.36-16.32l10.86,12.31c10.77,12.09,22.77,21.86,35.64,29.04
				l2.24,1.25l-17.11,28.98c7.79,16.93,8.57,32.43,2.1,42.7C977.78,993.6,970.65,997.36,962.01,997.36z M920.55,920.38
				c-1.65,3.42-16.83,37.24,15.45,61.45c9.18,6.88,18.17,10.52,26.01,10.52h0c6.96,0,12.44-2.85,15.84-8.24
				c5.69-9.02,4.61-23.27-2.95-39.09l-0.57-1.2l15.87-26.87c-12.52-7.31-24.19-17-34.72-28.82l-6.02-6.82l-5.26,10.27L920.55,920.38
				z"/>
		</g>
		<g>
			<path class="st3" d="M1013.58,784.68c0,0,27.01,18.7,47.37-14.54c0,0,40.72,2.91,35.73-54.01c-4.99-56.92-71.05,0-71.05,0
				s-8.73-16.62-24.93-15.37c-16.2,1.25-24.93,18.28-24.93,18.28s-28.25-17.04-59.41,2.49c-31.16,19.53-12.46,76.03,0,86.42
				c0,0-37.81,22.85-34.9,50.27c2.91,27.42,54.84,22.02,54.84,22.02s-4.99,23.27,14.13,34.9c0,0,10.8-29.92,36.98-35.32
				c0,0-23.27-7.48-22.44-34.07c0.83-26.59,22.44-21.61,22.44-21.61S1009.01,829.55,1013.58,784.68z"/>
		</g>
		<g>
			<path class="st3" d="M1060.28,812.47c-0.55-5.71-2.85-10.16-5.13-9.94c-2.28,0.22-3.69,5.03-3.14,10.74
				c0.55,5.71,2.85,10.16,5.13,9.94C1059.43,822.99,1060.83,818.18,1060.28,812.47z"/>
		</g>
	</g>
	<g>
		<g>
			<g>
				<path class="st12" d="M3306.94,997.56l-4.01,51.71c-20.63,3.67-43.89,5.41-70.06,4.76l-6.13-38.54l-19.63,37.19
					c-38.63-3.04-82.94-10.89-133.65-24.75c0,0,28.28-141.63,149.26-228.19l43.59,76l-12.5-95.71
					c107.96-59.44,171.78,2.31,191.09,69.38c15.47,53.72,2.21,152.84-104.17,190.09L3306.94,997.56z"/>
			</g>
			<g>
				
					<rect x="3244.96" y="942.31" transform="matrix(0.3078 -0.9515 0.9515 0.3078 1370.7466 3773.7256)" class="st3" width="67.86" height="5"/>
			</g>
		</g>
		<g>
			
				<rect x="3127.85" y="892.3" transform="matrix(0.9094 -0.416 0.416 0.9094 -70.806 1464.6174)" class="st3" width="395.64" height="5"/>
		</g>
	</g>
	<g>
		<g>
			<g>
				<path class="st12" d="M265.83,671.61l35.56-22.26c12.3,11.65,24.62,25.94,36.77,43.27l-22.12,22.52l33.62-5.11
					c16.59,26.59,32.79,59.17,48.16,98.81c0,0-105.7,49.7-220.15,12.64l28.47-64.89l-56.23,54.14
					c-90.56-41.63-81.08-112.82-46.75-157.63c27.5-35.89,98.33-74.92,173.7-23.65L265.83,671.61z"/>
			</g>
			<g>
				
					<rect x="217.57" y="712.71" transform="matrix(0.948 -0.3182 0.3182 0.948 -214.8195 115.1181)" class="st3" width="54.88" height="5"/>
			</g>
		</g>
		<g>
			
				<rect x="187.5" y="548.85" transform="matrix(0.4839 -0.8751 0.8751 0.4839 -522.2511 532.0795)" class="st3" width="5" height="319.96"/>
		</g>
	</g>
	<g>
		<polygon class="st3" points="1714.41,1395.44 1663.94,1259.07 1615.25,1314.58 1559.33,1155.17 1564.05,1153.51 1617.13,1304.85 
			1665.71,1249.46 1719.1,1393.7 		"/>
	</g>
	<g>
		<polygon class="st3" points="1998.06,825.99 1858.88,789.67 1860.15,784.84 1991.04,818.99 1975.1,758.63 2102.41,789.54 
			2101.23,794.4 1982.08,765.47 		"/>
	</g>
	<g>
		<polygon class="st3" points="1811.24,1212.48 1750.17,1131.38 1728.46,1178.85 1657.55,1081.26 1661.59,1078.32 1727.47,1168.99 
			1749.12,1121.67 1815.23,1209.48 		"/>
	</g>
	<g>
		
			<rect x="892.22" y="1325" transform="matrix(0.6956 -0.7184 0.7184 0.6956 -668.5707 1077.1163)" class="st0" width="89.08" height="5"/>
	</g>
	<g>
		<path class="st0" d="M743.38,1682.03l-3.07-3.95c86.89-67.56,136.99-161.44,163.72-228.3c28.98-72.48,37.48-129.62,37.56-130.19
			l4.95,0.72c-0.08,0.58-8.67,58.3-37.86,131.33c-17.15,42.89-37.95,82.63-61.84,118.09
			C816.96,1614.1,782.15,1651.89,743.38,1682.03z"/>
	</g>
	<g>
		
			<rect x="811.14" y="1104.98" transform="matrix(0.6546 -0.756 0.756 0.6546 -521.4328 1073.6649)" class="st0" width="206.27" height="5"/>
	</g>
	<g>
		<path class="st3" d="M2571.76,1173.23l-4.98-0.48c0.04-0.47,4.5-47.48,2.52-111.86l5-0.15
			C2576.29,1125.46,2571.8,1172.76,2571.76,1173.23z"/>
	</g>
	<g>
		<path class="st3" d="M2759.03,1006.61c-0.22-0.37-22.25-36.81-36.03-52.45l3.75-3.3c14.08,15.98,35.65,51.67,36.56,53.18
			L2759.03,1006.61z"/>
	</g>
	<g>
		
			<rect x="2629.69" y="1312.82" transform="matrix(0.5739 -0.8189 0.8189 0.5739 60.398 2746.718)" class="st3" width="80.22" height="5"/>
	</g>
	<g>
		
			<rect x="2583.86" y="1267.59" transform="matrix(0.8504 -0.5261 0.5261 0.8504 -293.5904 1554.1027)" class="st0" width="5" height="51.59"/>
	</g>
	<g>
		<path class="st0" d="M2592.08,1662.37c-0.67-0.94-67.17-95.06-77.78-191.26l-0.05-0.42l0.09-0.41
			c0.19-0.83,19.45-84.28,66.27-183.61l4.52,2.13c-44.9,95.26-64.31,175.78-65.82,182.18c10.62,94.74,76.17,187.55,76.84,188.48
			L2592.08,1662.37z"/>
	</g>
	<g>
		<rect x="646.78" y="1752.34" class="st3" width="107.95" height="5"/>
	</g>
	<g>
		
			<rect x="2751.69" y="1665.06" transform="matrix(0.7335 -0.6797 0.6797 0.7335 -403.9503 2318.3398)" class="st3" width="5" height="18.39"/>
	</g>
	<g>
		
			<rect x="2736.96" y="1671.11" transform="matrix(0.7335 -0.6797 0.6797 0.7335 -411.9898 2309.948)" class="st3" width="5" height="18.39"/>
	</g>
	<g>
		
			<rect x="1089.07" y="1671.29" transform="matrix(0.6797 -0.7335 0.7335 0.6797 -875.9187 1341.5869)" class="st3" width="18.39" height="5"/>
	</g>
	<g>
		
			<rect x="1103.8" y="1677.34" transform="matrix(0.6797 -0.7334 0.7334 0.6797 -875.6338 1354.3047)" class="st3" width="18.39" height="5"/>
	</g>
	<g>
		
			<rect x="728.51" y="1698.11" transform="matrix(0.1619 -0.9868 0.9868 0.1619 -1072.1267 2152.2292)" class="st3" width="5" height="18.39"/>
	</g>
	<g>
		
			<rect x="731.6" y="1713.74" transform="matrix(0.1619 -0.9868 0.9868 0.1619 -1084.9618 2168.3743)" class="st3" width="5" height="18.39"/>
	</g>
	<g>
		
			<rect x="2569.84" y="1666.43" transform="matrix(0.7335 -0.6797 0.6797 0.7335 -453.3538 2195.0947)" class="st3" width="5" height="18.39"/>
	</g>
	<g>
		
			<rect x="2555.1" y="1672.49" transform="matrix(0.7335 -0.6797 0.6797 0.7335 -461.3957 2186.6914)" class="st3" width="5" height="18.39"/>
	</g>
	<g>
		<polygon class="st3" points="1232.64,1742.46 1424.1,1612.24 1426.91,1616.37 1250.75,1736.19 1627.09,1709.95 1627.44,1714.93 		
			"/>
	</g>
	<g>
		
			<rect x="378.93" y="563.44" transform="matrix(0.5926 -0.8055 0.8055 0.5926 -295.2296 548.1754)" class="st3" width="30.73" height="5"/>
	</g>
	<g>
		
			<rect x="383.58" y="295.45" transform="matrix(0.9895 -0.1448 0.1448 0.9895 -43.0055 59.3154)" class="st3" width="5" height="59.44"/>
	</g>
	<g>
		<path class="st3" d="M260.35,449c-9.52,0-17.27-7.75-17.27-17.27c0-9.52,7.75-17.27,17.27-17.27c9.52,0,17.27,7.75,17.27,17.27
			C277.62,441.25,269.88,449,260.35,449z M260.35,419.45c-6.77,0-12.27,5.51-12.27,12.27c0,6.77,5.5,12.27,12.27,12.27
			s12.27-5.5,12.27-12.27C272.62,424.96,267.12,419.45,260.35,419.45z"/>
	</g>
	<g>
		<circle class="st3" cx="594.22" cy="448.56" r="14.77"/>
	</g>
	<g>
		<path class="st3" d="M1463.07,1673.97l-1.37-4.81c14.78-4.19,30.6-9.66,47.03-16.24l1.86,4.64
			C1494.01,1664.2,1478.02,1669.72,1463.07,1673.97z M1538.31,1645.69l-2.07-4.55c14.33-6.52,29.39-13.94,44.76-22.05l2.33,4.42
			C1567.88,1631.67,1552.73,1639.13,1538.31,1645.69z M1609.77,1609.05l-2.46-4.35c13.91-7.86,28.38-16.43,42.99-25.47l2.63,4.25
			C1638.26,1592.55,1623.74,1601.15,1609.77,1609.05z M1678.36,1567.39l-2.72-4.2c13.6-8.8,27.58-18.15,41.55-27.79l2.84,4.12
			C1706.02,1549.19,1692,1558.56,1678.36,1567.39z M1744.66,1522.22l-2.91-4.07c13.42-9.58,26.98-19.54,40.33-29.59l3.01,3.99
			C1771.72,1502.64,1758.11,1512.62,1744.66,1522.22z M1808.99,1474.26l-3.07-3.95c24.22-18.84,38.92-31.25,39.07-31.37l3.23,3.82
			C1848.07,1442.89,1833.3,1455.35,1808.99,1474.26z"/>
	</g>
	<g>
		<path class="st3" d="M2151.33,1352.89l-0.8-4.94c31.95-5.2,62.89-16.9,91.97-34.77l2.62,4.26
			C2215.47,1335.66,2183.92,1347.58,2151.33,1352.89z"/>
	</g>
	<g>
		<path class="st3" d="M2086.42,1354.99c-87.03-8.08-151.24-57.02-151.88-57.51l3.06-3.96c0.63,0.48,63.75,48.55,149.28,56.49
			L2086.42,1354.99z"/>
	</g>
	<g>
		<path class="st3" d="M2529.96,748.78l-3.23-3.81c0.37-0.31,37.26-31.04,69.32-8.17l-2.9,4.07
			C2564.28,720.28,2530.3,748.5,2529.96,748.78z"/>
	</g>
</g>
</svg>
